<?xml version="1.0" encoding="utf-8"?>
<!-- Generator: Adobe Illustrator 19.2.1, SVG Export Plug-In . SVG Version: 6.00 Build 0)  -->
<svg version="1.1" id="Layer_1" xmlns="http://www.w3.org/2000/svg" xmlns:xlink="http://www.w3.org/1999/xlink" x="0px" y="0px"
	 viewBox="0 0 800 400" style="enable-background:new 0 0 800 400;" xml:space="preserve">
<style type="text/css">
	.st0{fill:#3F2935;}
	.st1{fill:#F48220;}
	.st2{fill:none;}
	.st3{fill:#E62141;}
	.st4{fill:#F16137;}
	.st5{fill:#FFFFFF;}
	.st6{fill:#EC8023;}
	.st7{fill:#E42542;}
	.st8{fill:#E9603F;}
	.st9{fill:#3E2935;}
	.st10{fill:#E82142;}
	.st11{fill:#F5841F;}
</style>
<g>
	<g>
		<path class="st0" d="M227.7,293.5h-10l-0.2-33.7l-17.8,33.7h-3.5l-18-33.1l-0.2,33.1H168l1.6-58.5h4.5l24,42.1l23.4-42.1h4.5
			L227.7,293.5z"/>
		<path class="st0" d="M238.3,293.5h-10.7l27-58.1h2.3l27,58.1h-10.9l-5.1-11.5h-24.8L238.3,293.5z M246.9,273.9h17.5l-8.8-19.8
			L246.9,273.9z"/>
		<path class="st0" d="M330.9,288.9c0,0-7.5,4.8-19.2,4.8c-19.5,0-32.5-12.6-32.5-29.5c0-16.4,14-29.4,31.1-29.4
			c20.3,0,20.3,0,20.3,0l-2.6,9c0,0-8.6,0-16,0c-13.5,0-21.8,8.9-21.8,20.6c0,11.4,8.9,19.8,20.8,19.8c9.8,0,16.7-3.9,16.7-3.9
			L330.9,288.9z"/>
		<path class="st0" d="M320.4,234.8h48.4v9h-18.9v48.7h-10.2v-48.7h-19.3V234.8z"/>
		<path class="st0" d="M366.2,234.8h37.5v9.3h-27.3v18.7h44.1v9h-44.1v11.2h27.3v9.3h-37.5V234.8z"/>
		<path class="st0" d="M519.3,265.1c-21.3,22.7-30.2,27.3-41.9,27.3c-18.9,0-31.4-12.4-31.4-28.9c0-16.1,13.6-28.8,30.1-28.8
			c12.2,0,19.7,4.5,19.7,4.5l-3.4,8.4c0,0-7.4-3.6-14.6-3.6c-13.1,0-21.1,8.2-21.1,19.7c0,11.2,8.6,19.4,20.1,19.4
			c15.5,0,32.2-20.2,32.2-20.2S521.1,263.2,519.3,265.1z"/>
		<path class="st0" d="M498.8,234.8H509V263l24.5-28.2h12.4l-26.6,30.3l22.9,22.5l-7.8,4.8L509,267.7v24.7h-10.2V234.8z"/>
		<path class="st0" d="M545.2,292.4h-10.7l27-57.6h2.3l27,57.6H580L575,281h-24.8L545.2,292.4z M553.8,273h17.5l-8.8-19.7L553.8,273
			z"/>
		<g>
			<path class="st0" d="M632,292.5h-10.2v-16.7h-6.3c-1.8,0-1.1-0.1-2.7-0.2l-19.4,17h-13.7l21.4-19.5c-7.2-3.4-10.5-9.7-10.5-17.6
				c0-12,7.7-20.5,23-20.5H632V292.5z M614.3,244.2c-9.6,0-12.8,4.8-12.8,11.1c0,6.3,3.3,11.4,12.8,11.4h7.5v-22.5H614.3z"/>
		</g>
		<g>
			<path class="st0" d="M421.8,272.2v20h-9.9V235h11.6c5.5,0,10.1,1.7,13.8,5.3c3.7,3.5,5.6,7.9,5.6,13.3c0,5.4-1.9,9.8-5.6,13.4
				c-3.7,3.5-8.3,5.2-13.8,5.2H421.8z M421.8,244.9v17.3h1.7c5.4,0,9.5-3.6,9.5-8.7c0-5-4.1-8.7-9.5-8.7H421.8z"/>
		</g>
	</g>
	<g>
		<g>
			<path class="st0" d="M245.4,317.8c4.9,0,8.6,3.6,8.6,8.7c0,5-3.7,8.7-8.6,8.7s-8.6-3.6-8.6-8.7
				C236.8,321.6,240.4,317.8,245.4,317.8z M245.4,333.3c3.9,0,6.5-3,6.5-6.8c0-3.9-2.8-6.8-6.5-6.8c-3.7,0-6.5,2.8-6.5,6.8
				C238.9,330.4,241.8,333.3,245.4,333.3z"/>
			<path class="st0" d="M272.2,320H266l-0.3,3.2c-1,10.8-3.3,12.2-5.9,11.8l0-2.1c1.2,0.1,3.2-0.5,4-11.5l0.2-3.4h10.1v17h-2.1V320z
				"/>
			<path class="st0" d="M283.9,318.1h9.6v1.9H286v5.5h6.8v1.9H286v5.7h7.8v1.9h-9.8V318.1z"/>
			<path class="st0" d="M302.5,318.1h9.4v1.9h-7.4v15h-2.1V318.1z"/>
			<path class="st0" d="M322.2,318h1.8l7.3,17.1h-2.2l-2.2-5.1h-7.7L317,335h-2.1L322.2,318z M320,328h6.1l-3.1-7.2L320,328z"/>
			<path class="st0" d="M347.3,332.6l1.1-1.4c1.1,1.3,2.9,2.1,4.3,2.1c2.2,0,3.9-1.1,3.9-3.2c0-1.7-1.2-2.8-3.3-2.8h-2v-1.9h1.8
				c1.4,0,2.8-1.2,2.8-2.9c0-1.8-1.3-2.8-3.1-2.8c-1.7,0-2.8,0.7-3.9,1.9l-1.2-1.4c1.1-1.5,3.1-2.5,5.3-2.5c2.9,0,4.9,1.6,4.9,4.5
				c0,1.4-0.8,3-2.4,3.9v0.1c2.1,0.4,3.1,2.1,3.1,4c0,3.1-2.7,5-5.8,5C350.2,335.3,348.2,334,347.3,332.6z"/>
			<path class="st0" d="M372.6,318h1.8l7.3,17.1h-2.2l-2.2-5.1h-7.7l-2.2,5.1h-2.1L372.6,318z M370.3,328h6.1l-3.1-7.2L370.3,328z"
				/>
			<path class="st0" d="M389.1,318.1h2.1l6.4,8.7l6.1-8.7h2v17h-2.1v-13.7l-6,8.4h-0.3l-6.1-8.4V335h-2.1V318.1z"/>
			<path class="st0" d="M417.4,324.4c0.9-0.1,1.7-0.1,2.3-0.1c4.3,0,6.3,2,6.3,5.2c0,3.6-2.5,5.6-6.7,5.6c-1.5,0-2.9,0-3.9,0v-17
				h2.1V324.4z M417.4,326.3v6.7c0.7,0,1.3,0.1,2,0.1c2.8,0,4.3-1.2,4.3-3.6c0-2.2-1.5-3.3-4.2-3.3
				C419,326.2,418.3,326.2,417.4,326.3z M428.7,318.1h2.1v17h-2.1V318.1z"/>
			<path class="st0" d="M440.4,318.1h2.1v15h6.4v-15h2.1v15h6.4v-15h2.1v17h-19V318.1z"/>
			<path class="st0" d="M479.6,320h-6.2l-0.3,3.2c-1,10.8-3.3,12.2-5.9,11.8l0-2.1c1.2,0.1,3.2-0.5,4-11.5l0.2-3.4h10.1v17h-2.1V320
				z"/>
			<path class="st0" d="M499.3,328.7h-3.2l-4.4,6.3h-2.3l4.7-6.7c-1.7-0.7-3.3-2.3-3.3-4.7c0-3.1,2-5.6,6.6-5.6c1.1,0,3,0.1,4,0.1
				v17h-2.1V328.7z M499.3,326.8V320c-0.6,0-1.6-0.1-2.3-0.1c-2.6,0-4,1.6-4,3.6c0,1.8,1.5,3.1,2.9,3.3H499.3z"/>
			<path class="st0" d="M511,318.1h9.6v1.9h-7.5v5.5h6.8v1.9h-6.8v5.7h7.8v1.9H511V318.1z"/>
			<path class="st0" d="M529.5,318.1c0.9,0,3.1-0.1,4.7-0.1c4,0,5.5,1.8,5.5,4.2c0,2.1-1.3,3.4-2.9,3.9v0c2.1,0.3,3.5,1.7,3.5,4
				c0,3.4-2.6,4.9-6.2,4.9c-1.5,0-3.6,0-4.6-0.1V318.1z M531.6,320v5.5h2.7c1.8,0,3.3-1,3.3-2.8c0-1.8-1.2-2.7-3.4-2.7
				C533.2,319.9,532.2,320,531.6,320z M531.6,327.3v5.8c0.6,0,1.6,0.1,2.6,0.1c2.5,0,4-1,4-3.1c0-1.8-1.4-2.8-3.9-2.8H531.6z"/>
			<path class="st0" d="M554.2,318h1.8l7.3,17.1H561l-2.2-5.1h-7.7L549,335h-2.1L554.2,318z M552,328h6.1l-3.1-7.2L552,328z"/>
		</g>
	</g>
	<g>
		<path class="st1" d="M445.4,161.5c8.1-13.1,11.1-29.1,8.5-44.3c-2.7-15.2-11-29.1-23.2-38.7c-10.9-8.6-24.4-13.4-38.3-13.6
			c-14.9-0.2-29.7,4.9-41.2,14.4c-3.1,2.6-6.4,4.9-9.7,7.3c-6.5,4.9-13,9.7-19.5,14.6c-6.1,4.6-12.2,9.2-18.4,13.7
			c-1.6,1.2-3.3,2.5-4.9,3.7c-0.2,0.1-0.7,0.4-0.8,0.6c-0.1,0.2,0,0.8,0,1c0,6.8,0,13.6,0,20.4c0,6.9,0,13.7,0,20.6
			c0,0.4,0,0.8,0,1.2c3.5-2.8,7-5.6,10.4-8.4c5.5-4.5,11.1-8.9,16.6-13.4c1.3-1,2.5-2.1,3.8-3.1c1.4,9.7,5.1,19,10.7,27
			c5.5,7.9,12.8,14.5,21.1,19.1c8.6,4.8,49.6,6.1,59.2,1.3c9.3-4.7,17.5-11.7,23.5-20.2C444,163.7,444.7,162.6,445.4,161.5
			C446.1,160.3,445.3,161.6,445.4,161.5z M358.1,128.4c0-15.3,10.9-29,25.8-32.4c13.1-3,27,2.3,34.7,13.2c4.4,6.2,6.5,13.8,6,21.4
			c-0.5,7.8-3.8,15.3-9.2,20.9c-9.3,9.7-23.8,12.9-36.3,7.9c-11-4.4-19.1-14.6-20.7-26.4C358.2,131.5,358.1,129.9,358.1,128.4z"/>
		<path class="st2" d="M257.4,105c-0.5,1.2-1,2.3-1.5,3.4C256.5,107.2,257,106.1,257.4,105z"/>
		<path class="st3" d="M444,163.6C444,163.5,444.1,163.5,444,163.6c0-0.1-34.7-0.3-52.6-0.3c-8.3,0-13.3-3.8-18.3-7.1
			c-9-6-15-16.2-15-27.8c0-12.6,6.3-20.1,10.7-24.4l-40.1,33.3c4.4,30.7,30.8,54.4,62.7,54.4c0.8,0,136.8,0,136.8,0v-28H444z"/>
		<polygon class="st3" points="236.3,64.7 267.5,92.3 267.5,191.7 236.3,191.7 		"/>
		<polygon class="st4" points="236.3,108.3 297.9,162.3 297.9,119.2 236.3,64.7 		"/>
		<polygon class="st1" points="520.1,64.8 460.7,128.4 503.8,128.4 563.7,64.8 		"/>
		<polygon class="st4" points="519.9,191.6 460.7,128.4 503.8,128.4 563.5,191.6 		"/>
		<g>
			<path class="st3" d="M563.7,64.9H424.4c0.4,0.3,18.3,7,29.7,28h83.1L563.7,64.9z"/>
		</g>
	</g>
</g>
</svg>
